<svg xmlns="http://www.w3.org/2000/svg" xmlns:xlink="http://www.w3.org/1999/xlink" width="48" height="48" viewBox="0 0 48 48">
    <defs>
        <path id="prefix__a" d="M0 0.045L24.066 0.045 24.066 24.111 0 24.111z"/>
    </defs>
    <g fill="none" fill-rule="evenodd">
        <path d="M0 0H48V48H0z"/>
        <g transform="translate(11.556 12.111)">
            <mask id="prefix__b" fill="#fff">
                <use xlink:href="#prefix__a"/>
            </mask>
            <path fill="#4A4A4A" d="M24.066 22.184a1.928 1.928 0 01-1.927 1.927H1.927A1.928 1.928 0 010 22.184V1.972C0 .908.864.045 1.927.045H22.14c1.063 0 1.927.863 1.927 1.927v20.212z" mask="url(#prefix__b)"/>
            <path fill="#FEFEFE" d="M15.288 5.358H8.823a.774.774 0 00-.786.762v6.253c0 .422.352.763.786.763h2.98c-.02.743-.339 1.553-.8 2.271-.519.808-1.625 1.703-1.635 1.71a.413.413 0 00-.152.307c-.002.1.051.177.11.258l2.08 2.273s.1.103.183.123c.095.022.2.025.275-.03 3.6-2.7 4.12-6.085 4.21-7.917V6.12a.774.774 0 00-.786-.763"/>
        </g>
    </g>
</svg>
