<svg xmlns="http://www.w3.org/2000/svg" xmlns:xlink="http://www.w3.org/1999/xlink" width="48" height="48" viewBox="0 0 48 48">
    <defs>
        <path id="prefix__a" d="M0 0.066L23.267 0.066 23.267 23.333 0 23.333z"/>
    </defs>
    <g fill="none" fill-rule="evenodd">
        <path d="M0 0H48V48H0z"/>
        <g>
            <g transform="translate(11.556 11.556) translate(0 .065)">
                <mask id="prefix__b" fill="#fff">
                    <use xlink:href="#prefix__a"/>
                </mask>
                <path fill="#4A4A4A" d="M18.45.066H4.817A4.817 4.817 0 000 4.884v13.632a4.817 4.817 0 004.817 4.817H18.45a4.817 4.817 0 004.817-4.817V4.884A4.817 4.817 0 0018.45.066" mask="url(#prefix__b)"/>
            </g>
            <path fill="#FFF" d="M9.98 13.527a1.653 1.653 0 113.307 0 1.653 1.653 0 01-3.307 0m1.653 5.656a5.657 5.657 0 01-5.656-5.656v-7.68a1.501 1.501 0 013.002 0v7.68A2.654 2.654 0 109.98 11.45v-1.184a3.655 3.655 0 11-2.002 3.26v-7.68a.5.5 0 00-1 0v7.68A4.656 4.656 0 109.98 9.173V8.116a5.657 5.657 0 111.653 11.067m0-12.314c-.57 0-1.124.072-1.653.208v-1.23a2.502 2.502 0 00-5.004 0v7.68a6.657 6.657 0 106.657-6.658" transform="translate(11.556 11.556)"/>
        </g>
    </g>
</svg>
