<svg xmlns="http://www.w3.org/2000/svg" xmlns:xlink="http://www.w3.org/1999/xlink" width="48" height="48" viewBox="0 0 48 48">
    <defs>
        <path id="prefix__a" d="M0 0.037L23.29 0.037 23.29 23.105 0 23.105z"/>
    </defs>
    <g fill="none" fill-rule="evenodd">
        <path d="M0 0H48V48H0z"/>
        <g transform="translate(13.111 13.111)">
            <mask id="prefix__b" fill="#fff">
                <use xlink:href="#prefix__a"/>
            </mask>
            <path fill="#4A4A4A" d="M23.29 18.051a5.06 5.06 0 01-5.067 5.054H5.067A5.06 5.06 0 010 18.05V5.09A5.06 5.06 0 015.067.037h13.156A5.06 5.06 0 0123.29 5.09v12.961z" mask="url(#prefix__b)"/>
            <path fill="#FFF" d="M8.047 4.634c-1.868 0-3.387 1.5-3.387 3.343v7.38c0 1.843 1.52 3.342 3.387 3.342h7.01c1.868 0 3.388-1.5 3.388-3.342v-7.38c0-1.843-1.52-3.343-3.388-3.343h-7.01zm7.01 15.954h-7.01c-2.923 0-5.302-2.347-5.302-5.231v-7.38c0-2.885 2.379-5.232 5.302-5.232h7.01c2.924 0 5.302 2.347 5.302 5.232v7.38c0 2.884-2.378 5.231-5.302 5.231z"/>
            <path fill="#FFF" d="M11.56 8.924c-.65 0-1.27.25-1.752.707a2.664 2.664 0 00-.83 1.922c0 1.449 1.206 2.627 2.688 2.627 1.474 0 2.655-1.165 2.689-2.652.011-.526-.087-1.27-.623-1.829-.46-.48-1.187-.747-2.1-.774a2.53 2.53 0 00-.073 0m.107 7.546c-2.775 0-5.032-2.206-5.032-4.918 0-1.336.562-2.635 1.541-3.565A4.88 4.88 0 0111.7 6.636c1.552.044 2.846.562 3.742 1.497.852.89 1.286 2.08 1.256 3.445a4.973 4.973 0 01-1.488 3.449 5.016 5.016 0 01-3.544 1.444M17.386 6.748a1.03 1.03 0 11-2.06 0 1.03 1.03 0 012.06 0"/>
        </g>
    </g>
</svg>
